# xmcd CD database file
#
# Track frame offsets:
#	150
#	6265
#	11062
#	16452
#	20907
#	24605
#	27817
#	32037
#	37872
#	42272
#	47682
#	50452
#	63530
#	71510
#	78607
#	83679
#	89922
#	98362
#	107767
#	112865
#	119502
#	124265
#	130442
#	136417
#	141610
#	146007
#	149787
#	156567
#	163392
#	168772
#	173209
#	178015
#	184987
#	187787
#	190605
#	195847
#	199459
#	205187
#
# Disc length: 2889 seconds
#
# Revision: 2
# Processed by: cddbd v1.5.2PL0 Copyright (c) Steve Scherf et al.
# Submitted via: CDex 1.40Release
#
DISCID=2d0b4726
DTITLE=Margret Birkenfeld - Von allerlei Tieren
DYEAR=2005
DGENRE=Chorus
TTITLE0=Tag und Nacht hat Gott geschaffen
TTITLE1=Gott brachte die Tiere zu Adam hin
TTITLE2=Dort unten ein Rehlein
TTITLE3=Summ, summ, summ
TTITLE4=Vergissmeinnicht im Wiesengrund
TTITLE5=Kleine Musik
TTITLE6=An meiner Ziege hab ich Freude
TTITLE7=Die braune Henne Gackelei
TTITLE8=Muhkälbchen, muh!
TTITLE9=Auf unserer Wiese gehet was
TTITLE10=Drum Menschenkind, vertraue nur
TTITLE11=Alle Vögel sind schon da
TTITLE12=Lobet mit den Vögeln all
TTITLE13=Frau  Schwalbe ist 'ne Schwätzerin
TTITLE14=Vöglein im hohen Baum
TTITLE15=Di-ri-di-ri-di
TTITLE16=Wenn morgens ich erwache so frei und froh
TTITLE17=Wie hab ich doch die kleinen Waldvögelein so gern!
TTITLE18=Es war eine Mutter
TTITLE19=Der Lenz ist gekommen
TTITLE20=Heut scheint die liebe Sonne
TTITLE21=Im Märzen der Bauer
TTITLE22=In jeder braunen Knospe
TTITLE23=Jetzt fängt das schöne Frühjahr an
TTITLE24=Gänseblümchen
TTITLE25=Die Schöpfung preiset Gottes Güt
TTITLE26=Auf unserer Wiese
TTITLE27=Golden im Westen der Tag vergeht
TTITLE28=Jauchzet dem Herrn, alle Welt
TTITLE29=Lobe den Herrn, den mächtigen König der Ehren Strophe 1
TTITLE30=Wer hat die Sonne denn gemacht
TTITLE31=Wir pflügen und wir streuen
TTITLE32=Ich danke Gott und freue mich
TTITLE33=Das ist ein köstlich Ding
TTITLE34=Lobe den Herrn, den mächtigen König der Ehren Strophe 2
TTITLE35=Auf, Seele, Gott zu loben
TTITLE36=Mein Vater, der im Himmel wohnt
TTITLE37=Psalm 23
EXTD=YEAR: 2005 ID3G: 97
EXTT0=
EXTT1=
EXTT2=
EXTT3=
EXTT4=
EXTT5=
EXTT6=
EXTT7=
EXTT8=
EXTT9=
EXTT10=
EXTT11=
EXTT12=
EXTT13=
EXTT14=
EXTT15=
EXTT16=
EXTT17=
EXTT18=
EXTT19=
EXTT20=
EXTT21=
EXTT22=
EXTT23=
EXTT24=
EXTT25=
EXTT26=
EXTT27=
EXTT28=
EXTT29=
EXTT30=
EXTT31=
EXTT32=
EXTT33=
EXTT34=
EXTT35=
EXTT36=
EXTT37=
PLAYORDER=
